<svg width="206" height="291" fill="none" xmlns="http://www.w3.org/2000/svg"><g clip-path="url(#a)"><path d="M156.354 267.439c-11.262 4.576-24.108-.846-28.684-12.109l-26.112-64.266c-4.576-11.262.846-24.108 12.109-28.684 11.263-4.576 24.108.847 28.684 12.109l26.113 64.266c4.576 11.263-.847 24.108-12.11 28.684z" fill="#FF7051"/><path d="M156.644 268.152c-11.64 4.729-24.957-.893-29.686-12.532l-26.112-64.266c-4.73-11.64.892-24.957 12.532-29.686 11.639-4.73 24.956.892 29.686 12.532l26.112 64.266c4.729 11.639-.892 24.956-12.532 29.686zm-42.688-105.06c-10.852 4.41-16.097 16.827-11.686 27.683l26.112 64.266c4.41 10.852 16.827 16.097 27.683 11.686 10.856-4.411 16.096-16.831 11.686-27.683l-26.112-64.265c-4.409-10.852-16.826-16.098-27.683-11.687z" fill="#000"/><path d="M134.126 75.862c-2.419-3.19-6.912-6.57-11.62-5.603-.749.153-1.418.39-1.973.709-.494.273-2.505 2.004-3.577 3.39a.375.375 0 0 1-.291.149.385.385 0 0 1-.3-.137c-1.934-2.383-4.65-4.189-7.452-4.944-2.891-.783-5.622-.44-7.876.979-1.653 1.038-3.076 2.655-4.345 4.938a.37.37 0 0 1-.341.193.386.386 0 0 1-.33-.213c-2.817-5.91-5.695-10.408-9.936-15.524a.422.422 0 0 0-.154-.103.376.376 0 0 1-.235-.35c-.013-1.858-.046-3.598-.102-5.308l-.046-1.436c-.353-11.275-.658-21.012-12.63-26.76-4.932-2.37-12.105-2.229-15.572 2.104-1.57 1.966-2.777 4.472-3.685 7.668a.351.351 0 0 1-.247.257.386.386 0 0 1-.35-.058c-4.446-3.456-12.973-8.872-20.08-6.345-6.606 2.269-8.968 9.658-8.42 15.523.826 8.895 5.713 16.38 10.389 22.53A95.19 95.19 0 0 0 52.718 85.4a.38.38 0 0 1 .208.272c.931 4.947 2.214 10.026 3.916 15.524a.371.371 0 0 1-.15.423c-10.308 6.999-16.578 14.541-19.168 23.052-.594 1.95-1.296 4.847-.553 7.421.649 2.245 1.786 4.624 3.581 7.493 3.15 5.047 7.296 9.269 11.312 13.085 6.275 5.964 11.395 10.108 16.602 13.431 4.157 2.65 8.39 4.743 12.587 6.216a.38.38 0 0 1 .21.53c-3.609 7.134-1.864 15.441 4.241 20.205 3.05 2.378 6.995 3.963 11.72 4.718 11.732 1.868 23.288-1.939 32.043-5.467l.482-.196c6.741-2.739 15.31-6.748 21.737-13.47 3.47-3.631 5.356-7.292 5.613-10.887.381-5.3-.998-10.085-3.881-13.469-1.42-1.668-3.048-2.661-4.77-3.714a83.949 83.949 0 0 1-1.429-.899.38.38 0 0 1-.155-.44l.394.031-.358-.123c1.755-5.112 1.782-11.498.072-18.986-1.528-6.706-4.724-12.637-8.145-18.628a.372.372 0 0 1-.044-.241 80.898 80.898 0 0 0 .251-20.684c-.566-4.841-1.596-10.379-4.909-14.75l.001.015z" fill="#fff"/><path d="M88.543 174.58a.761.761 0 0 1-.427.042c-6.558-1.207-13.237-3.96-19.857-8.188-5.226-3.335-10.367-7.494-16.66-13.48-4.032-3.83-8.197-8.073-11.377-13.162-1.815-2.904-2.966-5.316-3.627-7.591-.775-2.678-.057-5.645.555-7.646 4.17-13.718 17.056-22.42 27.815-28.476 9.14-5.139 16.612-5.66 21.039-1.47 5.8 5.493 2.481 15.058 1.324 17.857-3.56 8.612-9.688 16.345-17.258 21.779a.769.769 0 0 1-.897-1.246c7.34-5.267 13.28-12.768 16.732-21.117 1.064-2.57 4.132-11.335-.96-16.154-5.26-4.98-14.306-1.075-19.226 1.69-10.506 5.909-23.083 14.388-27.096 27.578-.553 1.812-1.21 4.485-.55 6.77.62 2.136 1.717 4.428 3.452 7.209 3.086 4.941 7.173 9.099 11.128 12.862 6.22 5.913 11.29 10.014 16.43 13.295 6.453 4.12 12.951 6.801 19.31 7.972a.772.772 0 0 1 .153 1.47l-.003.006z" fill="#000"/><path d="M106.055 136.075a.769.769 0 0 1-1.002-.422c-2.373-5.841-13.367-12.197-24.533-11.961a.763.763 0 0 1-.784-.751.763.763 0 0 1 .751-.783c10.953-.233 23.1 5.801 25.99 12.916a.767.767 0 0 1-.422 1.001zM111.126 124.383c-2.254.916-4.897.623-7.86-.878-3.593-1.815-6.252-5.367-8.377-11.173-4.512-12.343-4.263-25.341.684-35.67.967-2.018 2.562-4.893 5.256-6.588 2.357-1.48 5.189-1.84 8.185-1.026 3.832 1.035 7.368 3.885 9.222 7.427 3.069 5.87 2.745 12.632 2.1 19.62-.061.68-.124 1.51-.194 2.457-.551 7.581-1.579 21.692-8.185 25.425-.27.154-.552.288-.833.402l.002.004zm-8.254-53.63c-.411.167-.82.372-1.224.629-1.792 1.128-3.284 3.018-4.689 5.952-4.772 9.955-4.997 22.519-.627 34.476 1.98 5.414 4.402 8.697 7.629 10.329 2.888 1.463 5.259 1.627 7.241.51 5.887-3.33 6.916-17.426 7.409-24.202.07-.956.129-1.796.195-2.486.625-6.752.946-13.267-1.928-18.768-1.662-3.177-4.827-5.727-8.26-6.656-1.502-.405-3.622-.647-5.742.214l-.004.002z" fill="#000"/><path d="M130.298 126.718c-2.162.878-4.594 1.056-6.844.037-1.807-.818-3.358-2.331-4.748-4.622l-.234-.383c-1.178-1.938-2.108-3.469-2.565-5.832a.77.77 0 0 1 1.512-.292c.405 2.091 1.229 3.445 2.369 5.326l.234.383c1.22 2.018 2.55 3.333 4.063 4.017 3.41 1.543 7.518-.409 9.649-3.032 2.461-3.026 3.329-7.089 3.855-10.661a79.558 79.558 0 0 0 .306-20.92c-.552-4.688-1.535-10.039-4.687-14.192-2.217-2.921-6.292-6.03-10.473-5.17a5.781 5.781 0 0 0-1.646.585c-.549.306-3.183 2.704-3.593 3.628a.77.77 0 0 1-1.013.392.77.77 0 0 1-.392-1.013c.598-1.351 3.557-3.959 4.248-4.347.605-.339 1.304-.588 2.087-.75 4.884-1.004 9.522 2.467 12.011 5.747 3.373 4.443 4.413 10.045 4.986 14.938a81.409 81.409 0 0 1-.313 21.323c-.559 3.781-1.491 8.095-4.186 11.411a11.783 11.783 0 0 1-4.632 3.424l.006.003z" fill="#000"/><path d="M123.544 172.079a47.64 47.64 0 0 1-8.964 2.652.772.772 0 0 1-.902-.61.772.772 0 0 1 .61-.902c12.464-2.389 23.461-9.865 29.418-20.003.942-1.608 1.636-3.062 2.113-4.447 1.688-4.903 1.702-11.08.039-18.356-1.5-6.577-4.708-12.513-8.135-18.521a.769.769 0 0 1 1.335-.762c3.49 6.114 6.753 12.16 8.302 18.941 1.724 7.559 1.698 14.019-.083 19.199-.511 1.482-1.244 3.03-2.239 4.727-4.694 7.995-12.4 14.392-21.488 18.085l-.006-.003z" fill="#000"/><path d="m129.894 192.477-.473.193c-8.803 3.542-20.423 7.37-32.25 5.488-4.791-.763-8.796-2.377-11.898-4.797-6.288-4.904-8.066-13.448-4.314-20.771a.772.772 0 0 1 1.036-.334.773.773 0 0 1 .333 1.037c-3.462 6.762-1.9 14.343 3.89 18.859 2.893 2.256 6.66 3.767 11.197 4.491 11.452 1.825 22.815-1.928 31.433-5.395 6.821-2.748 15.469-6.754 21.817-13.395 3.278-3.431 5.064-6.856 5.298-10.173.356-4.998-.927-9.49-3.609-12.642-1.307-1.534-2.858-2.481-4.504-3.481a49.056 49.056 0 0 1-1.969-1.241.77.77 0 0 1 .858-1.276c.634.431 1.281.822 1.909 1.201 1.675 1.023 3.411 2.076 4.873 3.8 2.948 3.46 4.357 8.345 3.971 13.75-.265 3.685-2.19 7.431-5.721 11.126-6.403 6.697-14.991 10.768-21.879 13.566l.002-.006zM85.146 95.358a.77.77 0 0 1-1.058-.693c-.223-7.866-.011-14.518.196-20.953.206-6.474.402-12.588.168-19.64l-.047-1.435c-.355-11.352-.638-20.313-11.982-25.765-4.429-2.13-11.114-2.05-14.181 1.79-3.707 4.634-4.663 11.7-5.266 17.965-2.062 21.37-.683 36.178 5.08 54.637a.767.767 0 0 1-.508.963.768.768 0 0 1-.962-.507c-5.835-18.674-7.228-33.647-5.146-55.245.626-6.483 1.625-13.817 5.594-18.778 3.587-4.484 10.98-4.647 16.051-2.211 12.187 5.856 12.496 15.7 12.854 27.104l.044 1.432c.234 7.1.039 13.238-.167 19.736-.206 6.415-.416 13.047-.194 20.86a.773.773 0 0 1-.477.736l.001.004z" fill="#000"/><path d="M53.27 85.845a.773.773 0 0 1-.76-.102 95.536 95.536 0 0 1-17.874-17.98c-4.703-6.193-9.63-13.74-10.467-22.734-.553-5.985 1.925-13.523 8.686-15.928 7.94-2.827 17.598 4.048 21.38 7.134a.77.77 0 1 1-.975 1.192c-2.79-2.279-12.48-9.51-19.894-6.875-5.98 2.127-8.168 8.924-7.663 14.337.799 8.61 5.587 15.924 10.157 21.946a94.073 94.073 0 0 0 17.585 17.689c.335.259.4.74.142 1.08a.762.762 0 0 1-.322.242l.005-.001zM96.46 77.224a.773.773 0 0 1-.988-.39c-2.952-6.376-5.83-10.948-10.27-16.3a.767.767 0 1 1 1.184-.979c4.53 5.467 7.47 10.13 10.481 16.64a.772.772 0 0 1-.41 1.035l.003-.006z" fill="#000"/><path d="M145.886 213.488c.636 1.567 1.313 3.172 2.516 4.367 1.197 1.193 3.059 1.882 4.623 1.237.486-.198.931-.53 1.204-.978.635-1.044.222-2.385-.214-3.53-2.369-6.287-4.765-12.627-8.347-18.308-.672-1.065-1.414-2.135-2.487-2.792-1.073-.658-2.557-.802-3.544-.025-2.581 2.035 5.069 17.126 6.25 20.033l-.001-.004zM153.719 232.635c.572 1.564 1.455 3.099 2.869 3.984 1.414.885 3.443.93 4.624-.248.9-.898 1.132-2.296.909-3.543-.219-1.248-.834-2.39-1.439-3.506-1.196-2.209-2.79-4.69-5.295-4.898-4.987-.414-2.514 5.913-1.671 8.216l.003-.005z" fill="#fff"/></g><defs><clipPath id="a"><path fill="#fff" transform="rotate(-22.113 108.585 21.218)" d="M0 0h112.731v268.079H0z"/></clipPath></defs></svg>