<svg width="395" height="312" viewBox="0 0 395 312" fill="none" xmlns="http://www.w3.org/2000/svg">
<path d="M287.367 310.953C346.235 310.953 393.956 287.02 393.956 257.497C393.956 227.973 346.235 204.04 287.367 204.04C228.499 204.04 180.778 227.973 180.778 257.497C180.778 287.02 228.499 310.953 287.367 310.953Z" fill="#967704"/>
<path d="M287.367 312C258.737 312 231.807 306.402 211.533 296.234C191.032 285.949 179.734 272.197 179.734 257.497C179.734 242.796 191.025 229.044 211.533 218.759C231.807 208.591 258.737 202.993 287.367 202.993C315.998 202.993 342.927 208.591 363.201 218.759C383.703 229.044 395 242.796 395 257.497C395 272.197 383.709 285.949 363.201 296.234C342.927 306.402 315.998 312 287.367 312ZM287.367 205.087C229.167 205.087 181.822 228.6 181.822 257.497C181.822 286.393 229.167 309.906 287.367 309.906C345.567 309.906 392.912 286.393 392.912 257.497C392.912 228.6 345.567 205.087 287.367 205.087Z" fill="black"/>
<path d="M287.367 228.674C337.284 228.674 379.177 245.888 390.763 269.124C379.177 292.36 337.284 309.574 287.367 309.574C237.449 309.574 195.557 292.36 183.97 269.124C195.557 245.888 237.449 228.674 287.367 228.674Z" fill="white"/>
<path d="M287.367 310.614C237.983 310.614 195.084 293.746 183.037 269.592C182.89 269.296 182.89 268.952 183.037 268.656C195.084 244.502 237.983 227.627 287.367 227.627C336.75 227.627 379.65 244.496 391.697 268.656C391.844 268.952 391.844 269.296 391.697 269.592C379.65 293.746 336.75 310.614 287.367 310.614ZM185.143 269.118C197.171 292.342 239.07 308.52 287.367 308.52C335.664 308.52 377.562 292.342 389.591 269.118C377.562 245.894 335.664 229.715 287.367 229.715C239.07 229.715 197.171 245.894 185.143 269.118Z" fill="black"/>
<path d="M79.1007 1.04696H212.128C298.345 1.04696 368.242 71.1563 368.242 157.635V290.913C348.693 302.331 319.725 309.567 287.367 309.567C258 309.567 231.408 303.612 212.128 293.974V189.413C212.128 171.861 197.945 157.629 180.44 157.629H79.1007C35.9923 157.629 1.04382 122.58 1.04382 79.341C1.04382 36.1016 35.9923 1.04696 79.1007 1.04696Z" fill="#FF7051"/>
<path d="M287.367 310.614C258.81 310.614 231.924 305.035 211.662 294.91C211.306 294.731 211.085 294.368 211.085 293.974V189.413C211.085 172.465 197.337 158.676 180.44 158.676H79.1007C35.4826 158.676 0 123.085 0 79.341C0 35.5966 35.4826 0 79.1007 0H212.128C254.107 0 293.575 16.3942 323.255 46.1709C352.935 75.9415 369.286 115.529 369.286 157.635V290.913C369.286 291.289 369.089 291.627 368.77 291.818C348.312 303.766 318.644 310.614 287.373 310.614H287.367ZM213.172 293.321C233.084 303.125 259.4 308.52 287.367 308.52C318.018 308.52 347.066 301.888 367.198 290.309V157.635C367.192 71.8707 297.633 2.09392 212.122 2.09392H79.1007C36.637 2.09392 2.08758 36.7483 2.08758 79.341C2.08758 121.934 36.637 156.588 79.1007 156.588H180.44C198.485 156.588 213.172 171.313 213.172 189.42V293.327V293.321Z" fill="black"/>
<path d="M111.262 23.883C104.741 27.6828 102.525 36.0708 106.313 42.6174C117.052 61.1486 117.045 92.5881 106.294 111.261C102.525 117.814 104.759 126.196 111.292 129.977C117.825 133.758 126.182 131.517 129.952 124.964C137.725 111.458 141.611 94.1586 141.611 76.8714C141.611 59.5843 137.719 42.291 129.927 28.853C126.139 22.3125 117.776 20.0893 111.249 23.8891L111.262 23.883Z" fill="#FF85A1"/>
<path d="M118.102 132.865C115.554 132.865 113.036 132.194 110.771 130.882C107.369 128.911 104.938 125.734 103.918 121.928C102.899 118.122 103.421 114.149 105.386 110.737C115.971 92.348 115.977 61.3949 105.404 43.147C103.433 39.7413 102.899 35.769 103.906 31.9569C104.913 28.1509 107.338 24.9607 110.734 22.9838C117.745 18.9007 126.759 21.2964 130.836 28.3233C138.462 41.4842 142.661 58.7221 142.661 76.8714C142.661 95.0208 138.468 112.265 130.86 125.487C128.896 128.899 125.727 131.338 121.933 132.36C120.668 132.699 119.379 132.871 118.102 132.871V132.865ZM118.102 23.0824C115.953 23.0824 113.773 23.6305 111.784 24.7944C108.867 26.4942 106.792 29.2286 105.926 32.4927C105.06 35.7629 105.521 39.1686 107.216 42.0939C118.12 60.9145 118.108 92.8283 107.197 111.784C105.515 114.71 105.067 118.122 105.938 121.386C106.81 124.65 108.898 127.378 111.814 129.072C114.731 130.759 118.132 131.209 121.386 130.334C124.641 129.46 127.361 127.366 129.049 124.44C136.478 111.532 140.574 94.6389 140.574 76.8714C140.574 59.1039 136.478 42.2232 129.037 29.3764C126.697 25.3364 122.461 23.0824 118.108 23.0824H118.102Z" fill="black"/>
<path d="M118.12 119.156C117.942 119.156 117.764 119.113 117.598 119.015C117.101 118.725 116.929 118.085 117.217 117.586C130.166 95.0885 130.166 58.6051 117.217 36.2556C116.929 35.7567 117.095 35.1162 117.598 34.8268C118.095 34.5373 118.734 34.7036 119.023 35.2086C132.303 58.137 132.309 95.5627 119.023 118.639C118.826 118.978 118.476 119.162 118.12 119.162V119.156Z" fill="black"/>
<path d="M80.8669 127.85C91.7317 123.336 96.8911 110.842 92.3908 99.9442C87.8904 89.0464 75.4345 83.8713 64.5698 88.3853C53.705 92.8994 48.5456 105.393 53.0459 116.291C57.5463 127.189 70.0021 132.364 80.8669 127.85Z" fill="white"/>
<path d="M72.7152 130.519C60.3985 130.519 50.3782 120.468 50.3782 108.114C50.3782 95.7598 60.3985 85.709 72.7152 85.709C85.0319 85.709 95.0523 95.7598 95.0523 108.114C95.0523 120.468 85.0319 130.519 72.7152 130.519ZM72.7152 87.8029C61.5467 87.8029 52.4657 96.9176 52.4657 108.114C52.4657 119.31 61.5528 128.425 72.7152 128.425C83.8776 128.425 92.9647 119.31 92.9647 108.114C92.9647 96.9176 83.8776 87.8029 72.7152 87.8029Z" fill="black"/>
<path d="M72.7153 120C79.2599 120 84.5654 114.678 84.5654 108.114C84.5654 101.549 79.2599 96.2279 72.7153 96.2279C66.1707 96.2279 60.8652 101.549 60.8652 108.114C60.8652 114.678 66.1707 120 72.7153 120Z" fill="black"/>
<path d="M62.4185 95.612L71.8985 106.39V93.6906L62.4185 95.612Z" fill="white"/>
<path d="M93.4385 50.6354C96.1399 39.1552 89.0514 27.652 77.6059 24.9424C66.1604 22.2328 54.6921 29.3429 51.9908 40.8231C49.2894 52.3034 56.3779 63.8065 67.8234 66.5161C79.2688 69.2257 90.7371 62.1157 93.4385 50.6354Z" fill="white"/>
<path d="M72.7152 68.1324C60.3985 68.1324 50.3782 58.0816 50.3782 45.7275C50.3782 33.3734 60.3985 23.3225 72.7152 23.3225C85.0319 23.3225 95.0523 33.3734 95.0523 45.7275C95.0523 58.0816 85.0319 68.1324 72.7152 68.1324ZM72.7152 25.4165C61.5467 25.4165 52.4657 34.5312 52.4657 45.7275C52.4657 56.9238 61.5528 66.0385 72.7152 66.0385C83.8776 66.0385 92.9647 56.9238 92.9647 45.7275C92.9647 34.5312 83.8776 25.4165 72.7152 25.4165Z" fill="black"/>
<path d="M78.7957 55.9204C84.8422 53.4083 87.7135 46.4553 85.2089 40.3905C82.7044 34.3257 75.7725 31.4457 69.7261 33.9578C63.6797 36.47 60.8084 43.4229 63.3129 49.4877C65.8174 55.5525 72.7493 58.4326 78.7957 55.9204Z" fill="black"/>
<path d="M62.4185 34.0139L71.8985 44.7975V32.0985L62.4185 34.0139Z" fill="white"/>
<path d="M287.367 312C258.737 312 231.807 306.402 211.533 296.234C191.032 285.949 179.734 272.197 179.734 257.497C179.734 256.918 180.201 256.45 180.778 256.45C181.355 256.45 181.822 256.918 181.822 257.497C181.822 286.393 229.167 309.906 287.367 309.906C345.567 309.906 392.912 286.393 392.912 257.497C392.912 256.918 393.379 256.45 393.956 256.45C394.533 256.45 395 256.918 395 257.497C395 272.191 383.709 285.949 363.201 296.234C342.927 306.402 315.998 312 287.367 312Z" fill="black"/>
</svg>
