<svg width="121" height="125" fill="none" xmlns="http://www.w3.org/2000/svg"><g clip-path="url(#a)"><path d="M51.65 12.64 9.98 52.23 1.48 1.56l50.17 11.08zM84.73 47.45l-41.68 39.6-8.49-50.67 50.17 11.07zM117.81 82.27l-41.68 39.6-8.49-50.68 50.17 11.08z" fill="#FAD645"/><path d="M9.16 54.66 0 0l54.12 11.95L9.16 54.66zM2.96 3.12l7.82 46.68 38.4-36.48L2.96 3.12zM42.24 89.48l-9.16-54.66L87.2 46.77 42.24 89.49v-.01zm-6.2-51.54 7.82 46.68 38.39-36.47-46.22-10.2.01-.01zM75.32 124.3l-9.16-54.66 54.12 11.95-44.96 42.71zm-6.2-51.54 7.82 46.68 38.39-36.47-46.22-10.2.01-.01z" fill="#0A002D"/></g><defs><clipPath id="a"><path fill="#fff" d="M0 0h120.28v124.3H0z"/></clipPath></defs></svg>