<svg width="342" height="194" fill="none" xmlns="http://www.w3.org/2000/svg"><path d="M15.184 163.025c-9.297-.976-16.067-9.331-15.09-18.624L13.679 15.177C14.656 5.884 23.015-.883 32.312.094l294.016 30.88c9.297.977 16.067 9.332 15.09 18.627l-13.585 129.222c-.977 9.293-9.336 16.06-18.635 15.083L15.184 163.025z" fill="#fff"/><path d="M325.891 35.126 31.875 4.246c-7.018-.738-13.307 4.352-14.045 11.367L4.247 144.835c-.738 7.016 4.354 13.301 11.373 14.039l294.016 30.881c7.019.737 13.307-4.353 14.045-11.368l13.585-129.222c.738-7.016-4.354-13.301-11.373-14.039h-.002z" fill="#29837A"/><path d="M324.149 42.636 32.017 11.954a6.07 6.07 0 0 0-6.67 5.4L11.96 144.694a6.067 6.067 0 0 0 5.403 6.668l292.132 30.682a6.069 6.069 0 0 0 6.671-5.4l13.386-127.34a6.069 6.069 0 0 0-5.403-6.668v.001z" fill="#fff"/><path d="M318.595 50.085 35.902 20.394a2.29 2.29 0 0 0-2.518 2.038L26.7 86.026a2.29 2.29 0 0 0 2.039 2.516l282.692 29.691a2.29 2.29 0 0 0 2.518-2.038l6.686-63.594a2.29 2.29 0 0 0-2.039-2.516z" fill="#29837A"/><path d="m73.451 37.089 11.071 1.162c.436.046.797.245 1.08.595.284.35.403.745.357 1.18l-4.04 38.438a1.55 1.55 0 0 1-.595 1.08 1.55 1.55 0 0 1-1.182.356l-9.584-1.006c-.953-.1-1.702-.6-2.249-1.499L57.071 59.492l-1.703 16.183a1.551 1.551 0 0 1-.594 1.08 1.551 1.551 0 0 1-1.181.357L42.52 75.949a1.549 1.549 0 0 1-1.08-.594 1.547 1.547 0 0 1-.357-1.18l4.041-38.438c.046-.436.243-.797.595-1.08.35-.283.743-.403 1.181-.357l9.643 1.014c.954.1 1.684.577 2.198 1.433l11.093 19.272 1.838-17.493c.046-.437.243-.797.595-1.08a1.556 1.556 0 0 1 1.181-.357h.002zM136.816 61.222l-.744 7.077c-.42 3.984-1.761 7.207-4.025 9.666-2.265 2.46-5.062 4.082-8.395 4.865-3.333.784-7.181.946-11.546.488-4.365-.458-8.095-1.416-11.193-2.875-3.097-1.459-5.496-3.627-7.2-6.504-1.705-2.877-2.343-6.347-1.916-10.408l.72-6.846c.614-5.839 3.126-9.994 7.539-12.465 4.413-2.468 9.891-3.36 16.439-2.672 6.548.688 11.723 2.698 15.527 6.03 3.802 3.33 5.401 7.88 4.794 13.64v.004zm-28.114-3.925-.946 9c-.162 1.538.259 2.776 1.264 3.716 1.005.94 2.438 1.507 4.304 1.703 1.865.196 3.388-.07 4.568-.8 1.18-.73 1.851-1.863 2.013-3.4l.935-8.89c.162-1.537-.259-2.784-1.261-3.742-1.003-.959-2.436-1.536-4.302-1.733-1.866-.197-3.386.06-4.564.772-1.18.71-1.848 1.834-2.01 3.372l-.001.002zM205.865 79.873c-.919 8.726-6.971 12.502-18.162 11.327l-24.525-2.575a1.55 1.55 0 0 1-1.081-.594 1.548 1.548 0 0 1-.357-1.181l4.042-38.437c.046-.436.242-.797.594-1.08.35-.283.743-.403 1.181-.357l23.93 2.513c5.634.592 9.685 2.05 12.147 4.374 2.464 2.325 3.48 5.55 3.046 9.673l-.019.179c-.2 1.904-.887 3.477-2.061 4.716-1.174 1.24-2.335 1.981-3.483 2.22 1.498.639 2.718 1.82 3.66 3.543.942 1.724 1.305 3.617 1.088 5.679zm-16.202-15.628a3.246 3.246 0 0 0 .828-1.87c.075-.713-.068-1.35-.431-1.908-.362-.56-.94-.882-1.733-.964l-7.976-.837-.569 5.413 7.976.837c.793.083 1.43-.14 1.907-.671h-.002zm-10.928 9.77-.613 5.832 8.631.907c.913.096 1.629-.14 2.152-.707a3.39 3.39 0 0 0 .9-1.98l.005-.06a2.87 2.87 0 0 0-.537-2.041c-.438-.607-1.073-.955-1.907-1.043l-8.631-.907zM221.156 94.712l-11.25-1.181a1.262 1.262 0 0 1-.882-.484c-.231-.285-.333-.546-.309-.784.026-.237.063-.414.116-.53l16.973-36.656c.495-1.271 1.458-1.832 2.886-1.681l16.547 1.738c1.429.15 2.253.898 2.472 2.244l8.981 39.383c.027.123.027.303.003.54-.026.238-.18.473-.465.703a1.267 1.267 0 0 1-.963.29l-11.249-1.18c-1.27-.134-2.093-.901-2.466-2.305l-1.051-4.32-14.524-1.526-1.926 4.009c-.659 1.294-1.622 1.874-2.892 1.741l-.001-.001zm17.525-16.147-2.926-12.82-5.529 11.933 8.453.889.002-.002zM268.213 57.545l18.988 1.994c4.366.459 8.094 1.431 11.187 2.92 3.094 1.488 5.488 3.704 7.185 6.65 1.697 2.944 2.33 6.461 1.901 10.545l-.639 6.068c-.668 6.346-3.296 10.743-7.885 13.19-4.205 2.205-9.581 2.963-16.129 2.276l-18.988-1.993a1.548 1.548 0 0 1-1.08-.595 1.548 1.548 0 0 1-.357-1.18l4.041-38.438c.046-.436.243-.796.597-1.08a1.552 1.552 0 0 1 1.181-.357h-.002zm12.65 13.059-1.939 18.444 5.416.568c1.864.195 3.39-.095 4.575-.873s1.862-1.98 2.033-3.608l.863-8.21c.171-1.627-.243-2.944-1.24-3.95-.998-1.008-2.429-1.61-4.293-1.805l-5.416-.568.001.002z" fill="#fff"/><path d="m71.15 102.395 13.534 1.422c.385.04.701.215.95.52.248.308.359.589.333.845a2.85 2.85 0 0 1-.13.634l-19.052 39.352c-.618 1.361-1.654 1.964-3.108 1.812l-14.943-1.569c-1.411-.149-2.284-.889-2.62-2.22l-10.56-42.656a2.623 2.623 0 0 1 .004-.647c.027-.256.193-.508.5-.758a1.367 1.367 0 0 1 1.038-.313l13.534 1.422c.769.081 1.376.372 1.822.872.443.5.725 1.015.842 1.547l4.794 25.328 9.956-23.779c.534-1.37 1.57-1.974 3.109-1.812h-.002zM134.353 122.32l-11.608-1.22-1.955 18.592 11.609 1.219c.469.05.857.263 1.165.64.305.379.434.802.384 1.271l-1.017 9.682c-.05.47-.263.859-.641 1.164a1.667 1.667 0 0 1-1.271.384l-40.663-4.271a1.676 1.676 0 0 1-1.165-.64 1.665 1.665 0 0 1-.385-1.271l1.018-9.681c.05-.469.263-.857.64-1.165a1.675 1.675 0 0 1 1.274-.384l11.737 1.232 1.955-18.591-11.738-1.232a1.676 1.676 0 0 1-1.165-.64 1.667 1.667 0 0 1-.384-1.272l1.017-9.681a1.68 1.68 0 0 1 .64-1.164 1.676 1.676 0 0 1 1.274-.384l40.663 4.271a1.68 1.68 0 0 1 1.165.64c.305.379.434.802.385 1.271l-1.018 9.681c-.05.471-.263.859-.64 1.164-.38.308-.803.435-1.272.385h-.004zM191.12 146.106c-.988 9.403-7.512 13.47-19.569 12.205l-26.425-2.776a1.677 1.677 0 0 1-1.165-.64 1.664 1.664 0 0 1-.384-1.271l4.354-41.414a1.67 1.67 0 0 1 .64-1.164 1.68 1.68 0 0 1 1.272-.385l25.782 2.708c6.071.638 10.435 2.209 13.09 4.713 2.656 2.505 3.749 5.978 3.281 10.424l-.02.193c-.215 2.051-.955 3.745-2.219 5.083-1.266 1.337-2.516 2.133-3.753 2.393 1.614.688 2.928 1.961 3.944 3.817 1.014 1.856 1.406 3.897 1.172 6.118v-.004zm-17.457-16.838a3.488 3.488 0 0 0 .893-2.013c.081-.769-.074-1.455-.464-2.058-.39-.602-1.014-.949-1.868-1.039l-8.594-.904-.613 5.833 8.595.904c.855.09 1.54-.151 2.053-.725l-.002.002zm-11.774 10.527-.66 6.282 9.299.976c.982.103 1.755-.149 2.317-.761a3.638 3.638 0 0 0 .969-2.134l.008-.064a3.099 3.099 0 0 0-.58-2.2c-.473-.655-1.156-1.029-2.054-1.124l-9.299-.977v.002zM216.22 150.362l25.591 2.688c.469.049.857.263 1.165.64.305.379.434.802.384 1.271l-.949 9.039a1.67 1.67 0 0 1-.641 1.164 1.663 1.663 0 0 1-1.271.385l-40.534-4.257a1.672 1.672 0 0 1-1.165-.64 1.665 1.665 0 0 1-.385-1.271l4.354-41.413c.05-.469.263-.858.641-1.165a1.674 1.674 0 0 1 1.273-.384l39.892 4.19c.469.05.857.263 1.165.64.305.379.434.802.384 1.271l-.949 9.039c-.05.471-.263.859-.641 1.165a1.669 1.669 0 0 1-1.273.384l-24.949-2.621-.425 4.039 21.421 2.25c.469.05.858.263 1.165.64.305.379.434.802.385 1.271l-.876 8.335c-.05.471-.264.859-.641 1.164a1.674 1.674 0 0 1-1.273.385l-21.421-2.25-.425 4.039-.002.002zM295.238 147.237c2.747 2.438 3.899 5.782 3.452 10.033-.447 4.251-2.968 7.472-7.565 9.659-4.597 2.187-10.464 2.906-17.604 2.156-7.142-.751-12.553-2.635-16.233-5.655-3.683-3.02-5.323-6.434-4.921-10.246.097-.93.638-1.346 1.621-1.241l13.147 1.381c.898.094 1.597.434 2.098 1.017 1.082 1.218 3.099 1.981 6.049 2.29 4.061.427 6.156.043 6.281-1.155.077-.743-.501-1.398-1.739-1.966-1.237-.567-3.738-1.258-7.5-2.071-11.952-2.673-17.532-7.787-16.737-15.341.447-4.251 2.753-7.483 6.92-9.694 4.166-2.211 9.51-2.977 16.03-2.292 6.52.684 11.642 2.647 15.365 5.888 3.723 3.241 5.419 6.431 5.09 9.567-.044.423-.219.747-.525.973-.305.224-.691.313-1.163.263l-13.789-1.448c-.769-.081-1.408-.393-1.912-.936-.933-.995-2.425-1.602-4.477-1.817-2.866-.302-4.358.127-4.479 1.282-.065.62.439 1.162 1.514 1.629 1.075.468 3.261 1.064 6.557 1.785 6.929 1.521 11.769 3.498 14.518 5.938l.002.001z" fill="#29837A"/></svg>