<svg width="346" height="233" fill="none" xmlns="http://www.w3.org/2000/svg"><g clip-path="url(#a)"><path d="M1.076 131.299c-.15 3.382 4.539 6.347 10.48 6.612 5.943.27 10.884-2.254 11.041-5.642.548-12.051 10.789-21.408 22.837-20.866 23.913 1.083 44.25-17.498 45.333-41.418.547-12.051 10.789-21.408 22.836-20.867 23.913 1.084 44.251-17.497 45.333-41.417l-21.521-.976c-.547 12.051-10.788 21.408-22.836 20.866-23.913-1.083-44.25 17.498-45.333 41.418-.548 12.051-10.789 21.408-22.837 20.866C22.49 88.8 2.153 107.38 1.076 131.3z" fill="#FF90E8"/><path d="M12.425 139c-.302 0-.61-.006-.912-.019-3.06-.138-5.917-.957-8.051-2.304-2.323-1.461-3.55-3.388-3.462-5.428l1.07.05-1.07-.05c.535-11.856 5.671-22.806 14.452-30.827 8.781-8.022 20.149-12.152 31.995-11.61 5.54.251 10.852-1.676 14.962-5.428 4.104-3.753 6.509-8.872 6.76-14.413 1.108-24.512 21.95-43.552 46.448-42.438 5.539.252 10.851-1.675 14.962-5.427 4.104-3.753 6.508-8.872 6.76-14.413.013-.283.138-.548.346-.743.208-.189.485-.29.768-.277l21.521.976c.283.013.548.139.743.346.189.208.289.485.277.768-1.077 23.826-20.804 42.483-44.414 42.489-.674 0-1.354-.013-2.033-.044-5.54-.252-10.852 1.675-14.962 5.427-4.104 3.753-6.509 8.872-6.76 14.413-1.077 23.826-20.804 42.482-44.415 42.488a44.68 44.68 0 0 1-2.033-.044c-11.456-.516-21.2 8.381-21.716 19.846-.094 2.04-1.486 3.847-3.928 5.094-2.02 1.033-4.588 1.587-7.308 1.587V139zm31.983-48.099c-10.569 0-20.627 3.904-28.508 11.101-8.36 7.638-13.244 18.058-13.754 29.342-.056 1.234.819 2.487 2.455 3.519 1.826 1.152 4.312 1.851 7.006 1.977 2.694.12 5.23-.352 7.157-1.335 1.725-.881 2.707-2.046 2.763-3.286.573-12.637 11.318-22.46 23.95-21.887C68.8 111.39 88.634 93.262 89.69 69.934c.277-6.113 2.921-11.761 7.453-15.898 4.532-4.137 10.392-6.265 16.504-5.988 22.963 1.039 42.551-16.516 44.15-39.327l-19.393-.876a22.798 22.798 0 0 1-7.378 14.828c-4.532 4.137-10.392 6.265-16.504 5.988C91.202 27.61 71.367 45.725 70.31 69.06c-.277 6.114-2.921 11.762-7.453 15.899-4.532 4.136-10.392 6.265-16.504 5.988a40.508 40.508 0 0 0-1.952-.044h.007z" fill="#000"/><path d="M137.409 6.73c.151-3.38 5.092-5.905 11.041-5.64 5.942.27 10.637 3.23 10.48 6.61-.151 3.382-5.092 5.907-11.041 5.642-5.942-.27-10.637-3.23-10.486-6.611h.006z" fill="#FFD724"/><path d="M148.777 14.431c-.309 0-.617-.006-.932-.018-3.059-.139-5.917-.957-8.05-2.305-2.323-1.46-3.544-3.394-3.456-5.427.183-4.036 5.52-6.964 12.155-6.662 6.634.302 11.689 3.696 11.506 7.732-.176 3.84-5.029 6.68-11.223 6.68zm-1.183-12.29c-4.904 0-8.995 2.034-9.115 4.634-.057 1.234.818 2.487 2.455 3.52 1.825 1.152 4.312 1.85 7.006 1.977 5.256.24 9.794-1.877 9.92-4.615.126-2.74-4.211-5.258-9.461-5.497-.27-.013-.541-.02-.805-.02z" fill="#000"/></g><path d="m334.063 207.589-15.901 1.758-2.978-27.063-33.382 1.488-3.837-34.486-33.358 1.467-3.087-27.685 15.439-5.907 1.885 16.988 33.347-1.495 3.846 34.482 33.355-1.476 4.671 41.929z" fill="#FF7051"/><path d="m330.454 164.407-33.347 1.496-3.829-34.522-33.366 1.503-1.805-16.162-2.316.886 1.983 17.775 33.354-1.477 3.837 34.486 33.348-1.495 4.412 39.63-13.501 1.482-2.977-26.977-33.373 1.484-3.818-34.493-33.367 1.502-2.983-26.911-2.335.894 3.177 28.507 33.354-1.477 3.837 34.486 33.347-1.495 3.019 27.143 18.277-2.014-4.928-44.251z" fill="#0A002D"/><path fill="#0A002D" d="m256.734 117.247.715 1.868-15.878 6.075-.715-1.868z"/><g clip-path="url(#b)"><path d="M158.996 97.333a50.31 50.31 0 0 0 32.663 32.663 50.307 50.307 0 0 0-32.663 32.663 50.312 50.312 0 0 0-32.663-32.663 50.278 50.278 0 0 0 32.663-32.663z" fill="#FAD645"/><path d="m158.996 166-.968-3.03c-4.839-15.199-16.799-27.167-31.998-32.006l-3.03-.968 3.03-.968c15.199-4.839 27.159-16.799 32.006-31.998l.968-3.03.968 3.03c4.839 15.199 16.807 27.159 32.007 32.006l3.029.968-3.029.968c-15.2 4.839-27.159 16.807-32.007 32.007l-.968 3.029-.008-.008zm-29.6-36.004a51.446 51.446 0 0 1 29.6 29.599 51.444 51.444 0 0 1 29.599-29.599 51.446 51.446 0 0 1-29.599-29.6 51.447 51.447 0 0 1-29.6 29.6z" fill="#0A002D"/></g><defs><clipPath id="a"><path fill="#fff" d="M0 0h160v139H0z"/></clipPath><clipPath id="b"><path fill="#fff" transform="translate(123 94)" d="M0 0h72v72H0z"/></clipPath></defs></svg>