<svg width="86" height="86" fill="none" xmlns="http://www.w3.org/2000/svg"><g clip-path="url(#a)"><path d="M42.77 3.96a59.778 59.778 0 0 0 38.81 38.81 59.778 59.778 0 0 0-38.81 38.81A59.778 59.778 0 0 0 3.96 42.77 59.735 59.735 0 0 0 42.77 3.96z" fill="#FAD645"/><path d="m42.77 85.55-1.15-3.6C35.87 63.89 21.66 49.67 3.6 43.92L0 42.77l3.6-1.15C21.66 35.87 35.87 21.66 41.63 3.6L42.78 0l1.15 3.6c5.75 18.06 19.97 32.27 38.03 38.03l3.6 1.15-3.6 1.15C63.9 49.68 49.69 63.9 43.93 81.96l-1.15 3.6-.01-.01zM7.6 42.77a61.129 61.129 0 0 1 35.17 35.17 61.129 61.129 0 0 1 35.17-35.17C61.78 36.58 48.95 23.76 42.77 7.6A61.129 61.129 0 0 1 7.6 42.77z" fill="#0A002D"/></g><defs><clipPath id="a"><path fill="#fff" d="M0 0h85.55v85.55H0z"/></clipPath></defs></svg>