<svg width="140" height="139" fill="none" xmlns="http://www.w3.org/2000/svg"><circle cx="69.781" cy="69.006" r="66.68" fill="#FFC900"/><path d="M129.66 33.826c-9.57-15.923-24.795-27.181-42.868-31.704C68.719-2.4 49.959.358 33.969 9.888 17.979 19.414 6.673 34.573 2.13 52.573-2.41 70.57.36 89.25 9.93 105.172c9.57 15.923 24.793 27.184 42.865 31.706 18.073 4.523 36.833 1.762 52.824-7.768 15.99-9.527 27.296-24.685 31.837-42.682 4.542-18 1.772-36.681-7.798-52.602h.003zm-75.599 98.042C19.526 123.228-1.51 88.222 7.166 53.834c8.676-34.393 43.83-55.338 78.362-46.698 34.533 8.64 55.572 43.643 46.896 78.033-8.677 34.388-43.83 55.339-78.363 46.699z" fill="#F3583F"/><path d="M58.877 115.657c-25.45-6.378-40.958-32.22-34.564-57.604a2.588 2.588 0 0 1 3.14-1.875 2.58 2.58 0 0 1 1.878 3.131c-5.7 22.628 8.122 45.66 30.806 51.346 22.687 5.685 45.779-8.101 51.479-30.726a2.59 2.59 0 0 1 3.139-1.874 2.581 2.581 0 0 1 1.88 3.13c-6.394 25.385-32.304 40.852-57.755 34.475l-.003-.003zM71.386 44.266c2.726-10.85 1.064-20.617-3.711-21.817-4.775-1.2-10.855 6.624-13.58 17.473-2.726 10.85-1.064 20.618 3.711 21.817 4.775 1.2 10.855-6.623 13.58-17.473zM99.201 51.589c2.725-10.85 1.064-20.617-3.711-21.817-4.775-1.2-10.856 6.624-13.58 17.474-2.726 10.85-1.064 20.617 3.71 21.816 4.776 1.2 10.856-6.623 13.581-17.473z" fill="#F3583F"/></svg>