<svg width="168" height="168" fill="none" xmlns="http://www.w3.org/2000/svg"><path d="m141.04 57.04-18.134 19.9 23.981 12.241-25.674 8.145 14.668 22.59-26.301-5.764 1.38 26.888-19.9-18.134-12.241 23.981-8.145-25.674-22.588 14.667 5.763-26.301-26.889 1.381 18.136-19.9-23.981-12.242 25.672-8.144L32.12 48.086l26.3 5.763-1.38-26.889 19.9 18.136 12.242-23.981 8.144 25.672 22.59-14.668-5.764 26.301 26.888-1.38z" fill="#FAD645"/><mask id="a" fill="#fff"><path d="M106.593 131.799 89.915 116.6l-10.254 20.086-6.824-21.511-18.928 12.289 4.827-22.029-22.535 1.158 15.2-16.678-20.087-10.254 21.511-6.824-12.29-18.928 22.03 4.827L61.407 36.2l16.678 15.2 10.254-20.087 6.824 21.511 18.928-12.29-4.827 22.03 22.535-1.158L116.6 78.085l20.086 10.254-21.511 6.824 12.289 18.928-22.029-4.827 1.158 22.535zm-16.886-16.346 16.091 14.665-1.117-21.743 21.252 4.657-11.858-18.261 20.754-6.583-19.377-9.892 14.665-16.092-21.743 1.118 4.657-21.252L94.77 53.928l-6.583-20.754-9.892 19.377-16.092-14.666 1.118 21.743-21.252-4.656 11.858 18.26-20.754 6.583 19.377 9.893-14.666 16.091 21.743-1.117-4.656 21.252 18.26-11.858 6.583 20.754 9.893-19.377z"/></mask><path d="M106.593 131.799 89.915 116.6l-10.254 20.086-6.824-21.511-18.928 12.289 4.827-22.029-22.535 1.158 15.2-16.678-20.087-10.254 21.511-6.824-12.29-18.928 22.03 4.827L61.407 36.2l16.678 15.2 10.254-20.087 6.824 21.511 18.928-12.29-4.827 22.03 22.535-1.158L116.6 78.085l20.086 10.254-21.511 6.824 12.289 18.928-22.029-4.827 1.158 22.535zm-16.886-16.346 16.091 14.665-1.117-21.743 21.252 4.657-11.858-18.261 20.754-6.583-19.377-9.892 14.665-16.092-21.743 1.118 4.657-21.252L94.77 53.928l-6.583-20.754-9.892 19.377-16.092-14.666 1.118 21.743-21.252-4.656 11.858 18.26-20.754 6.583 19.377 9.893-14.666 16.091 21.743-1.117-4.656 21.252 18.26-11.858 6.583 20.754 9.893-19.377z" fill="#FF7051"/><path d="m89.915 116.6 1.347-1.478-1.936-1.766-1.192 2.334 1.781.91zm-10.254 20.086-1.906.604 1.473 4.643 2.214-4.338-1.78-.909zm-6.824-21.511 1.906-.605-.794-2.502-2.201 1.429 1.089 1.678zm-18.928 12.289-1.954-.428-1.042 4.758 4.085-2.652-1.09-1.678zm4.827-22.029 1.953.428.561-2.56-2.617.134.102 1.998zM36.2 106.593l-1.479-1.347-3.275 3.594 4.856-.25-.102-1.997zm15.2-16.678 1.477 1.348 1.766-1.937-2.334-1.192-.91 1.781zM31.313 79.661l-.605-1.906-4.642 1.473 4.338 2.215.91-1.782zm21.511-6.824.605 1.906 2.502-.794-1.43-2.201-1.677 1.089zm-12.29-18.928.429-1.954-4.758-1.042 2.652 4.085 1.678-1.09zm22.03 4.827-.428 1.953 2.56.561-.135-2.617-1.997.102zM61.407 36.2l1.347-1.479-3.594-3.275.25 4.856 1.997-.102zm16.678 15.2-1.348 1.477 1.937 1.766 1.192-2.334-1.781-.91zm10.254-20.087 1.906-.605-1.473-4.642-2.215 4.338 1.782.91zm6.824 21.511-1.906.605.794 2.502 2.201-1.43-1.089-1.677zm18.928-12.29 1.954.429 1.042-4.758-4.085 2.652 1.089 1.678zm-4.827 22.03-1.953-.428-.561 2.56 2.617-.134-.103-1.998zm22.535-1.158 1.479 1.347 3.275-3.594-4.856.25.102 1.997zM116.6 78.085l-1.478-1.348-1.766 1.937 2.334 1.192.91-1.781zm20.086 10.254.604 1.906 4.643-1.473-4.338-2.215-.909 1.782zm-21.511 6.824-.605-1.906-2.502.794 1.429 2.201 1.678-1.089zm12.289 18.928-.428 1.954 4.758 1.042-2.653-4.085-1.677 1.089zm-22.029-4.827.428-1.953-2.56-.561.134 2.617 1.998-.103zm.363 20.854-1.347 1.479 3.594 3.275-.249-4.856-1.998.102zm-1.117-21.743.428-1.953-2.56-.561.135 2.617 1.997-.103zm21.252 4.657-.428 1.953 4.758 1.043-2.653-4.086-1.677 1.09zm-11.858-18.261-.605-1.906-2.502.793 1.43 2.202 1.677-1.09zm20.754-6.583.605 1.906 4.643-1.472-4.339-2.215-.909 1.781zm-19.377-9.892-1.478-1.347-1.766 1.936 2.335 1.192.909-1.781zm14.665-16.092 1.479 1.347 3.275-3.594-4.856.25.102 1.997zm-21.743 1.118-1.953-.428-.561 2.56 2.617-.135-.103-1.997zm4.657-21.252 1.953.428 1.043-4.759-4.086 2.653 1.09 1.678zM94.77 53.928l-1.906.604.793 2.503 2.202-1.43-1.09-1.677zm-6.583-20.754 1.907-.605-1.473-4.643-2.215 4.338 1.781.91zM78.295 52.55l-1.347 1.478 1.937 1.765 1.191-2.334-1.781-.91zM62.203 37.885l1.347-1.478-3.594-3.276.25 4.857 1.997-.103zm1.118 21.743-.428 1.954 2.56.56-.135-2.616-1.997.102zm-21.252-4.656.428-1.954-4.759-1.042 2.653 4.085 1.678-1.09zm11.858 18.26.604 1.907 2.503-.794-1.43-2.202-1.677 1.09zm-20.754 6.583-.605-1.906-4.643 1.473 4.338 2.215.91-1.782zm19.377 9.893 1.478 1.347 1.765-1.937-2.334-1.192-.91 1.782zm-14.666 16.091-1.478-1.347-3.276 3.594 4.857-.249-.103-1.998zm21.743-1.117 1.954.428.56-2.56-2.616.135.102 1.997zm-4.656 21.252-1.954-.428-1.042 4.758 4.085-2.653-1.089-1.677zm18.26-11.858 1.907-.605-.794-2.502-2.202 1.43 1.09 1.677zm6.583 20.754-1.906.605 1.473 4.643 2.215-4.339-1.782-.909zm28.126-4.509-16.677-15.199-2.695 2.956 16.678 15.2 2.694-2.957zM88.134 115.69 77.88 135.776l3.562 1.819 10.255-20.086-3.563-1.819zm-6.567 20.391-6.824-21.511-3.813 1.209 6.825 21.511 3.813-1.209zm-9.82-22.584-18.927 12.29 2.178 3.355 18.928-12.29-2.178-3.355zm-15.885 14.395 4.827-22.029-3.907-.856-4.827 22.029 3.907.856zm2.77-24.455-22.534 1.159.205 3.994 22.535-1.158-.205-3.995zM37.68 107.94l15.2-16.677-2.957-2.695-15.2 16.678 2.957 2.694zm14.63-19.806L32.224 77.88l-1.82 3.563 20.087 10.254 1.819-3.563zm-20.39-6.567 21.511-6.824-1.21-3.813-21.51 6.825 1.209 3.813zm22.584-9.82L42.213 52.82l-3.355 2.178 12.29 18.928 3.355-2.178zM40.108 55.863l22.03 4.827.855-3.907-22.03-4.827-.855 3.907zm24.455 2.77-1.159-22.534-3.994.205 1.158 22.535 3.995-.205zM60.06 37.68l16.677 15.2 2.695-2.957-16.678-15.2-2.694 2.957zm19.806 14.63L90.12 32.224l-3.563-1.82-10.254 20.087 3.563 1.819zm6.566-20.39 6.825 21.511 3.813-1.21-6.825-21.51-3.813 1.21zm9.82 22.584 18.928-12.29-2.178-3.355-18.928 12.29 2.178 3.355zm15.885-14.395-4.826 22.03 3.907.855 4.827-22.03-3.908-.855zm-2.77 24.455 22.535-1.159-.205-3.994-22.535 1.158.205 3.995zm20.954-4.503-15.199 16.677 2.956 2.695 15.2-16.678-2.957-2.694zM115.69 79.866l20.086 10.254 1.819-3.563-20.086-10.254-1.819 3.563zm20.391 6.566-21.511 6.825 1.209 3.813 21.511-6.825-1.209-3.813zm-22.584 9.82 12.29 18.928 3.354-2.178-12.289-18.928-3.355 2.178zm14.395 15.885-22.029-4.826-.856 3.907 22.029 4.827.856-3.908zm-24.455-2.77 1.158 22.535 3.995-.205-1.158-22.535-3.995.205zm-15.078 7.564 16.092 14.666 2.694-2.957-16.091-14.665-2.695 2.956zm19.437 13.085-1.118-21.743-3.994.205 1.117 21.743 3.995-.205zm-3.543-19.687 21.252 4.656.856-3.907-21.252-4.656-.856 3.907zm23.357 1.613-11.858-18.26-3.354 2.178 11.857 18.261 3.355-2.179zm-12.93-15.265 20.754-6.583-1.21-3.812-20.754 6.583 1.21 3.812zm21.058-10.27-19.377-9.892-1.818 3.562 19.377 9.892 1.818-3.562zm-18.808-6.764 14.666-16.092-2.957-2.694-14.665 16.092 2.956 2.694zm13.085-19.436-21.743 1.117.205 3.995 21.743-1.117-.205-3.995zm-19.687 3.543 4.656-21.252-3.907-.856-4.656 21.252 3.907.856zm1.613-23.358L93.681 52.25l2.178 3.355 18.261-11.858-2.179-3.355zm-15.265 12.93L90.094 32.57l-3.813 1.21 6.582 20.753 3.813-1.21zm-10.27-21.058-9.893 19.377 3.563 1.819 9.892-19.377-3.562-1.819zm-6.764 18.808L63.55 36.407l-2.694 2.956L76.948 54.03l2.694-2.957zM60.206 37.988l1.117 21.743 3.995-.205-1.117-21.744-3.995.206zm3.543 19.687-21.252-4.657-.856 3.908 21.252 4.656.856-3.907zM40.39 56.06l11.858 18.26 3.355-2.178-11.858-18.26-3.355 2.178zm12.93 15.265L32.569 77.91l1.21 3.813 20.753-6.583-1.21-3.813zm-21.058 10.27L51.64 91.49l1.819-3.563-19.377-9.892-1.819 3.563zm18.808 6.764-14.665 16.092 2.956 2.694 14.666-16.091-2.957-2.695zm-13.084 19.437 21.743-1.118-.205-3.994-21.744 1.117.206 3.995zm19.687-3.543-4.657 21.252 3.908.856 4.656-21.252-3.907-.856zm-1.614 23.357 18.26-11.858-2.178-3.354-18.26 11.857 2.178 3.355zm15.265-12.93 6.583 20.754 3.813-1.21-6.583-20.754-3.813 1.21zm10.27 21.058 9.893-19.377-3.563-1.818-9.892 19.377 3.563 1.818z" fill="#FF7051" mask="url(#a)"/><path d="M99.481 61.523c-3.118 2.143-3.35 2.797-2.303 6.432-2.143-3.117-2.797-3.35-6.433-2.303 3.118-2.142 3.35-2.797 2.304-6.432 2.142 3.117 2.797 3.35 6.432 2.303zM76.885 101.393c-2.508 1.726-2.696 2.251-1.854 5.177-1.725-2.509-2.25-2.697-5.176-1.854 2.508-1.726 2.697-2.251 1.854-5.176 1.725 2.508 2.25 2.696 5.176 1.853zM71.96 108.477c-.95.654-1.021.853-.702 1.961-.653-.95-.852-1.022-1.96-.702.95-.654 1.021-.853.702-1.961.653.95.852 1.021 1.96.702zM81.669 106.689c-1.52 1.045-1.634 1.364-1.123 3.136-1.045-1.519-1.364-1.633-3.136-1.123 1.52-1.045 1.633-1.363 1.123-3.136 1.045 1.52 1.364 1.634 3.136 1.123zM90.587 57.452c-1.636 1.123-1.759 1.468-1.209 3.374-1.123-1.635-1.468-1.759-3.374-1.208 1.635-1.124 1.759-1.468 1.208-3.374 1.124 1.635 1.468 1.758 3.374 1.208zM97.356 56.337c-.722.496-.777.649-.534 1.491-.496-.723-.649-.777-1.491-.534.722-.496.777-.65.534-1.492.496.723.649.778 1.491.535zM61.21 99.192l-3.85-11.674 13.124-4.326.738 2.24-8.767 2.89.905 2.747 8.372-2.76.738 2.24-8.371 2.76 1.466 4.447-4.355 1.436zM84.67 91.639c-1.546.51-2.92.781-4.121.815-1.183.027-2.161-.182-2.935-.628-.759-.463-1.287-1.146-1.586-2.051l-2.5-7.587 4.496-1.482 2.393 7.26c.187.566.43.987.73 1.263.32.27.702.415 1.148.437.462.005 1.004-.095 1.626-.3.64-.211 1.144-.462 1.508-.75.365-.29.585-.635.663-1.035.096-.406.05-.893-.137-1.46l-2.388-7.243 4.497-1.482 2.485 7.537c.291.883.27 1.736-.065 2.56-.335.823-.992 1.59-1.97 2.299-.96.703-2.241 1.318-3.844 1.847zM94.334 88.271l-3.849-11.674 6.081-2.004 7.695 7.74.085-.027c-.164-.37-.32-.716-.469-1.042a23.222 23.222 0 0 1-.403-.937c-.12-.299-.23-.57-.332-.815a9.779 9.779 0 0 1-.254-.677l-1.882-5.706 4.016-1.324 3.849 11.673-6.024 1.987-7.751-7.723-.113.037c.21.45.396.855.556 1.213.156.347.293.665.409.953.13.27.236.526.315.766.094.223.174.432.238.628l1.85 5.608-4.017 1.324z" fill="#FF7051"/></svg>